<?xml version="1.0" encoding="UTF-8"?>
<svg xmlns="http://www.w3.org/2000/svg" xmlns:xlink="http://www.w3.org/1999/xlink" viewBox="-20 -20 310 310" stroke="currentColor" fill="transparent" stroke-width="7">
  <path id="out_line" d="M202.51,79.58c-23.51-40.94-75.76-55.07-116.7-31.55-22.03,12.65-37.29,34.44-41.64,59.47C13.48,114.6-5.63,145.24,1.49,175.93c5.99,25.86,29.04,44.17,55.58,44.16,1.93,0,3.86-.1,5.78-.29h116.83c1.91,.15,3.83,.29,5.78,.29,39.37,0,71.29-31.92,71.29-71.29,0-32.8-22.38-61.37-54.23-69.22h0Z"/>
  <path id="t_line" d="M128.29,81.27l-44.16,25.5v25.49l22.09-12.75v51.32l22.08,12.73h0V106.75l22.08-12.75-22.08-12.74Z"/>
  <path id="i_line" d="M150.5,119.64v51.17l22.17-12.8v-51.19l-22.17,12.81Z"/>
</svg>